<svg xmlns="http://www.w3.org/2000/svg" xmlns:xlink="http://www.w3.org/1999/xlink" width="500" zoomAndPan="magnify" viewBox="0 0 375 374.999991" height="500" preserveAspectRatio="xMidYMid meet" version="1.0"><defs><g/></defs><rect x="-37.5" width="450" fill="#ffffff" y="-37.499999" height="449.999989" fill-opacity="1"/><rect x="-37.5" width="450" fill="#0c1e7b" y="-37.499999" height="449.999989" fill-opacity="1"/><g fill="#ffffff" fill-opacity="1"><g transform="translate(93.936027, 199.675084)"><g><path d="M 5.078125 -3.40625 C 2.515625 -6.207031 1.234375 -9.640625 1.234375 -13.703125 C 1.234375 -17.773438 2.515625 -21.222656 5.078125 -24.046875 C 7.648438 -26.867188 10.921875 -28.28125 14.890625 -28.28125 C 18.535156 -28.28125 21.535156 -27.140625 23.890625 -24.859375 L 23.890625 -27.484375 L 33.375 -27.484375 L 33.375 0 L 24 0 L 24 -3.109375 L 23.890625 -3.109375 C 21.535156 -0.503906 18.535156 0.796875 14.890625 0.796875 C 10.921875 0.796875 7.648438 -0.601562 5.078125 -3.40625 Z M 13.140625 -18.359375 C 11.910156 -17.148438 11.296875 -15.597656 11.296875 -13.703125 C 11.296875 -11.816406 11.882812 -10.273438 13.0625 -9.078125 C 14.25 -7.878906 15.804688 -7.28125 17.734375 -7.28125 C 19.585938 -7.28125 21.113281 -7.882812 22.3125 -9.09375 C 23.507812 -10.3125 24.109375 -11.851562 24.109375 -13.71875 C 24.109375 -15.601562 23.488281 -17.148438 22.25 -18.359375 C 21.019531 -19.578125 19.515625 -20.1875 17.734375 -20.1875 C 15.910156 -20.1875 14.378906 -19.578125 13.140625 -18.359375 Z M 13.140625 -18.359375 "/></g></g></g><g fill="#ffffff" fill-opacity="1"><g transform="translate(125.959772, 199.675084)"><g><path d="M 3.21875 0 L 3.21875 -27.484375 L 12.6875 -27.484375 L 12.6875 -24.578125 L 12.796875 -24.578125 C 15.265625 -27.046875 17.890625 -28.28125 20.671875 -28.28125 C 22.671875 -28.28125 24.546875 -27.867188 26.296875 -27.046875 C 28.046875 -26.222656 29.367188 -24.957031 30.265625 -23.25 C 33.046875 -26.601562 36.082031 -28.28125 39.375 -28.28125 C 42.300781 -28.28125 44.816406 -27.457031 46.921875 -25.8125 C 49.023438 -24.175781 50.078125 -21.609375 50.078125 -18.109375 L 50.078125 0 L 40.59375 0 L 40.59375 -15.53125 C 40.59375 -17 40.191406 -18.222656 39.390625 -19.203125 C 38.585938 -20.179688 37.382812 -20.671875 35.78125 -20.671875 C 34.382812 -20.671875 33.320312 -20.25 32.59375 -19.40625 C 31.863281 -18.570312 31.460938 -17.566406 31.390625 -16.390625 L 31.390625 0 L 21.90625 0 L 21.90625 -15.53125 C 21.90625 -17 21.503906 -18.222656 20.703125 -19.203125 C 19.898438 -20.179688 18.695312 -20.671875 17.09375 -20.671875 C 15.625 -20.671875 14.519531 -20.210938 13.78125 -19.296875 C 13.050781 -18.390625 12.6875 -17.3125 12.6875 -16.0625 L 12.6875 0 Z M 3.21875 0 "/></g></g></g><g fill="#ffffff" fill-opacity="1"><g transform="translate(174.156707, 199.675084)"><g><path d="M 3.21875 0 L 3.21875 -27.484375 L 12.6875 -27.484375 L 12.6875 -24.578125 L 12.796875 -24.578125 C 15.265625 -27.046875 17.890625 -28.28125 20.671875 -28.28125 C 22.671875 -28.28125 24.546875 -27.867188 26.296875 -27.046875 C 28.046875 -26.222656 29.367188 -24.957031 30.265625 -23.25 C 33.046875 -26.601562 36.082031 -28.28125 39.375 -28.28125 C 42.300781 -28.28125 44.816406 -27.457031 46.921875 -25.8125 C 49.023438 -24.175781 50.078125 -21.609375 50.078125 -18.109375 L 50.078125 0 L 40.59375 0 L 40.59375 -15.53125 C 40.59375 -17 40.191406 -18.222656 39.390625 -19.203125 C 38.585938 -20.179688 37.382812 -20.671875 35.78125 -20.671875 C 34.382812 -20.671875 33.320312 -20.25 32.59375 -19.40625 C 31.863281 -18.570312 31.460938 -17.566406 31.390625 -16.390625 L 31.390625 0 L 21.90625 0 L 21.90625 -15.53125 C 21.90625 -17 21.503906 -18.222656 20.703125 -19.203125 C 19.898438 -20.179688 18.695312 -20.671875 17.09375 -20.671875 C 15.625 -20.671875 14.519531 -20.210938 13.78125 -19.296875 C 13.050781 -18.390625 12.6875 -17.3125 12.6875 -16.0625 L 12.6875 0 Z M 3.21875 0 "/></g></g></g><g fill="#ffffff" fill-opacity="1"><g transform="translate(222.353643, 199.675084)"><g><path d="M 5.078125 -3.40625 C 2.515625 -6.207031 1.234375 -9.640625 1.234375 -13.703125 C 1.234375 -17.773438 2.515625 -21.222656 5.078125 -24.046875 C 7.648438 -26.867188 10.921875 -28.28125 14.890625 -28.28125 C 18.535156 -28.28125 21.535156 -27.140625 23.890625 -24.859375 L 23.890625 -27.484375 L 33.375 -27.484375 L 33.375 0 L 24 0 L 24 -3.109375 L 23.890625 -3.109375 C 21.535156 -0.503906 18.535156 0.796875 14.890625 0.796875 C 10.921875 0.796875 7.648438 -0.601562 5.078125 -3.40625 Z M 13.140625 -18.359375 C 11.910156 -17.148438 11.296875 -15.597656 11.296875 -13.703125 C 11.296875 -11.816406 11.882812 -10.273438 13.0625 -9.078125 C 14.25 -7.878906 15.804688 -7.28125 17.734375 -7.28125 C 19.585938 -7.28125 21.113281 -7.882812 22.3125 -9.09375 C 23.507812 -10.3125 24.109375 -11.851562 24.109375 -13.71875 C 24.109375 -15.601562 23.488281 -17.148438 22.25 -18.359375 C 21.019531 -19.578125 19.515625 -20.1875 17.734375 -20.1875 C 15.910156 -20.1875 14.378906 -19.578125 13.140625 -18.359375 Z M 13.140625 -18.359375 "/></g></g></g><g fill="#ffffff" fill-opacity="1"><g transform="translate(254.377388, 199.675084)"><g><path d="M 3.21875 0 L 3.21875 -27.484375 L 12.6875 -27.484375 L 12.6875 -23.515625 L 12.796875 -23.515625 C 12.867188 -23.660156 12.984375 -23.835938 13.140625 -24.046875 C 13.304688 -24.265625 13.65625 -24.640625 14.1875 -25.171875 C 14.726562 -25.710938 15.300781 -26.195312 15.90625 -26.625 C 16.507812 -27.050781 17.296875 -27.429688 18.265625 -27.765625 C 19.234375 -28.109375 20.210938 -28.28125 21.203125 -28.28125 C 22.242188 -28.28125 23.265625 -28.132812 24.265625 -27.84375 C 25.265625 -27.5625 25.992188 -27.28125 26.453125 -27 L 27.203125 -26.5625 L 23.25 -18.53125 C 22.070312 -19.53125 20.425781 -20.03125 18.3125 -20.03125 C 17.175781 -20.03125 16.195312 -19.78125 15.375 -19.28125 C 14.550781 -18.78125 13.96875 -18.171875 13.625 -17.453125 C 13.289062 -16.742188 13.050781 -16.140625 12.90625 -15.640625 C 12.757812 -15.140625 12.6875 -14.75 12.6875 -14.46875 L 12.6875 0 Z M 3.21875 0 "/></g></g></g><path stroke-linecap="butt" transform="matrix(0.75, 0, 0, 0.75, 78.868168, 255.746381)" fill="none" stroke-linejoin="miter" d="M -0.00130749 4.999618 L 84.43099 4.999618 " stroke="#ffffff" stroke-width="10" stroke-opacity="1" stroke-miterlimit="4"/><path stroke-linecap="butt" transform="matrix(0, 0.75, -0.75, 0, 86.364323, 199.152688)" fill="none" stroke-linejoin="miter" d="M -0.00045863 5.001389 L 82.463088 5.001389 " stroke="#ffffff" stroke-width="10" stroke-opacity="1" stroke-miterlimit="4"/><path stroke-linecap="butt" transform="matrix(-0.75, 0, 0, -0.75, 296.123392, 146.919146)" fill="none" stroke-linejoin="miter" d="M -0.00214366 5.00157 L 84.435362 5.00157 " stroke="#ffffff" stroke-width="10" stroke-opacity="1" stroke-miterlimit="4"/><path stroke-linecap="butt" transform="matrix(0, -0.75, 0.75, 0, 288.627233, 203.512837)" fill="none" stroke-linejoin="miter" d="M 0.00149105 5.002232 L 82.465038 5.002232 " stroke="#ffffff" stroke-width="10" stroke-opacity="1" stroke-miterlimit="4"/><g fill="#ffffff" fill-opacity="1"><g transform="translate(96.807611, 232.618314)"><g><path d="M 10.4375 -8.171875 C 10.4375 -7.066406 10.078125 -6.1875 9.359375 -5.53125 C 8.640625 -4.882812 7.660156 -4.5625 6.421875 -4.5625 L 2.984375 -4.5625 L 2.984375 0 L 1.390625 0 L 1.390625 -11.703125 L 6.3125 -11.703125 C 7.625 -11.703125 8.640625 -11.394531 9.359375 -10.78125 C 10.078125 -10.164062 10.4375 -9.296875 10.4375 -8.171875 Z M 8.84375 -8.15625 C 8.84375 -9.664062 7.9375 -10.421875 6.125 -10.421875 L 2.984375 -10.421875 L 2.984375 -5.8125 L 6.1875 -5.8125 C 7.957031 -5.8125 8.84375 -6.59375 8.84375 -8.15625 Z M 8.84375 -8.15625 "/></g></g></g><g fill="#ffffff" fill-opacity="1"><g transform="translate(108.141266, 232.618314)"><g><path d="M 1.171875 0 L 1.171875 -6.890625 C 1.171875 -7.523438 1.15625 -8.222656 1.125 -8.984375 L 2.546875 -8.984375 C 2.585938 -7.960938 2.609375 -7.347656 2.609375 -7.140625 L 2.640625 -7.140625 C 2.878906 -7.910156 3.148438 -8.4375 3.453125 -8.71875 C 3.765625 -9 4.203125 -9.140625 4.765625 -9.140625 C 4.972656 -9.140625 5.175781 -9.113281 5.375 -9.0625 L 5.375 -7.6875 C 5.175781 -7.75 4.910156 -7.78125 4.578125 -7.78125 C 3.960938 -7.78125 3.488281 -7.507812 3.15625 -6.96875 C 2.832031 -6.4375 2.671875 -5.675781 2.671875 -4.6875 L 2.671875 0 Z M 1.171875 0 "/></g></g></g><g fill="#ffffff" fill-opacity="1"><g transform="translate(113.799797, 232.618314)"><g><path d="M 2.296875 -4.171875 C 2.296875 -3.140625 2.503906 -2.34375 2.921875 -1.78125 C 3.347656 -1.226562 3.972656 -0.953125 4.796875 -0.953125 C 5.441406 -0.953125 5.957031 -1.082031 6.34375 -1.34375 C 6.738281 -1.601562 7.003906 -1.929688 7.140625 -2.328125 L 8.453125 -1.953125 C 7.921875 -0.535156 6.703125 0.171875 4.796875 0.171875 C 3.472656 0.171875 2.460938 -0.222656 1.765625 -1.015625 C 1.066406 -1.804688 0.71875 -2.984375 0.71875 -4.546875 C 0.71875 -6.035156 1.066406 -7.171875 1.765625 -7.953125 C 2.460938 -8.742188 3.453125 -9.140625 4.734375 -9.140625 C 7.378906 -9.140625 8.703125 -7.550781 8.703125 -4.375 L 8.703125 -4.171875 Z M 7.15625 -5.328125 C 7.070312 -6.265625 6.828125 -6.953125 6.421875 -7.390625 C 6.023438 -7.828125 5.457031 -8.046875 4.71875 -8.046875 C 3.988281 -8.046875 3.410156 -7.800781 2.984375 -7.3125 C 2.566406 -6.832031 2.34375 -6.171875 2.3125 -5.328125 Z M 7.15625 -5.328125 "/></g></g></g><g fill="#ffffff" fill-opacity="1"><g transform="translate(123.250041, 232.618314)"><g><path d="M 2.28125 -4.53125 C 2.28125 -3.332031 2.46875 -2.445312 2.84375 -1.875 C 3.21875 -1.300781 3.785156 -1.015625 4.546875 -1.015625 C 5.078125 -1.015625 5.519531 -1.15625 5.875 -1.4375 C 6.238281 -1.726562 6.460938 -2.171875 6.546875 -2.765625 L 8.046875 -2.671875 C 7.929688 -1.804688 7.5625 -1.113281 6.9375 -0.59375 C 6.320312 -0.0820312 5.539062 0.171875 4.59375 0.171875 C 3.332031 0.171875 2.367188 -0.222656 1.703125 -1.015625 C 1.046875 -1.816406 0.71875 -2.976562 0.71875 -4.5 C 0.71875 -6.007812 1.050781 -7.160156 1.71875 -7.953125 C 2.382812 -8.742188 3.335938 -9.140625 4.578125 -9.140625 C 5.492188 -9.140625 6.253906 -8.898438 6.859375 -8.421875 C 7.460938 -7.953125 7.84375 -7.300781 8 -6.46875 L 6.46875 -6.34375 C 6.382812 -6.84375 6.1875 -7.238281 5.875 -7.53125 C 5.5625 -7.832031 5.113281 -7.984375 4.53125 -7.984375 C 3.738281 -7.984375 3.164062 -7.71875 2.8125 -7.1875 C 2.457031 -6.664062 2.28125 -5.78125 2.28125 -4.53125 Z M 2.28125 -4.53125 "/></g></g></g><g fill="#ffffff" fill-opacity="1"><g transform="translate(131.746135, 232.618314)"><g><path d="M 1.140625 -10.890625 L 1.140625 -12.3125 L 2.625 -12.3125 L 2.625 -10.890625 Z M 1.140625 0 L 1.140625 -8.984375 L 2.625 -8.984375 L 2.625 0 Z M 1.140625 0 "/></g></g></g><g fill="#ffffff" fill-opacity="1"><g transform="translate(135.521254, 232.618314)"><g><path d="M 7.890625 -2.484375 C 7.890625 -1.640625 7.566406 -0.984375 6.921875 -0.515625 C 6.285156 -0.0546875 5.390625 0.171875 4.234375 0.171875 C 3.117188 0.171875 2.257812 -0.0078125 1.65625 -0.375 C 1.050781 -0.75 0.65625 -1.328125 0.46875 -2.109375 L 1.796875 -2.359375 C 1.921875 -1.878906 2.179688 -1.523438 2.578125 -1.296875 C 2.972656 -1.078125 3.523438 -0.96875 4.234375 -0.96875 C 4.992188 -0.96875 5.550781 -1.082031 5.90625 -1.3125 C 6.257812 -1.550781 6.4375 -1.898438 6.4375 -2.359375 C 6.4375 -2.710938 6.3125 -3 6.0625 -3.21875 C 5.820312 -3.445312 5.429688 -3.632812 4.890625 -3.78125 L 3.8125 -4.0625 C 2.957031 -4.28125 2.347656 -4.492188 1.984375 -4.703125 C 1.617188 -4.921875 1.332031 -5.179688 1.125 -5.484375 C 0.925781 -5.785156 0.828125 -6.160156 0.828125 -6.609375 C 0.828125 -7.429688 1.117188 -8.054688 1.703125 -8.484375 C 2.285156 -8.910156 3.140625 -9.125 4.265625 -9.125 C 5.253906 -9.125 6.039062 -8.945312 6.625 -8.59375 C 7.207031 -8.25 7.578125 -7.691406 7.734375 -6.921875 L 6.390625 -6.75 C 6.304688 -7.15625 6.082031 -7.460938 5.71875 -7.671875 C 5.351562 -7.890625 4.867188 -8 4.265625 -8 C 3.585938 -8 3.085938 -7.894531 2.765625 -7.6875 C 2.441406 -7.476562 2.28125 -7.164062 2.28125 -6.75 C 2.28125 -6.5 2.347656 -6.289062 2.484375 -6.125 C 2.617188 -5.957031 2.816406 -5.816406 3.078125 -5.703125 C 3.335938 -5.585938 3.882812 -5.425781 4.71875 -5.21875 C 5.507812 -5.019531 6.078125 -4.835938 6.421875 -4.671875 C 6.773438 -4.503906 7.050781 -4.316406 7.25 -4.109375 C 7.445312 -3.898438 7.601562 -3.660156 7.71875 -3.390625 C 7.832031 -3.128906 7.890625 -2.828125 7.890625 -2.484375 Z M 7.890625 -2.484375 "/></g></g></g><g fill="#ffffff" fill-opacity="1"><g transform="translate(144.017347, 232.618314)"><g><path d="M 1.140625 -10.890625 L 1.140625 -12.3125 L 2.625 -12.3125 L 2.625 -10.890625 Z M 1.140625 0 L 1.140625 -8.984375 L 2.625 -8.984375 L 2.625 0 Z M 1.140625 0 "/></g></g></g><g fill="#ffffff" fill-opacity="1"><g transform="translate(147.792467, 232.618314)"><g><path d="M 8.734375 -4.5 C 8.734375 -2.925781 8.390625 -1.753906 7.703125 -0.984375 C 7.015625 -0.210938 6.007812 0.171875 4.6875 0.171875 C 3.375 0.171875 2.382812 -0.226562 1.71875 -1.03125 C 1.050781 -1.832031 0.71875 -2.988281 0.71875 -4.5 C 0.71875 -7.59375 2.054688 -9.140625 4.734375 -9.140625 C 6.109375 -9.140625 7.117188 -8.757812 7.765625 -8 C 8.410156 -7.25 8.734375 -6.082031 8.734375 -4.5 Z M 7.171875 -4.5 C 7.171875 -5.738281 6.984375 -6.640625 6.609375 -7.203125 C 6.242188 -7.765625 5.628906 -8.046875 4.765625 -8.046875 C 3.890625 -8.046875 3.253906 -7.757812 2.859375 -7.1875 C 2.472656 -6.613281 2.28125 -5.71875 2.28125 -4.5 C 2.28125 -3.3125 2.472656 -2.421875 2.859375 -1.828125 C 3.242188 -1.234375 3.847656 -0.9375 4.671875 -0.9375 C 5.566406 -0.9375 6.207031 -1.222656 6.59375 -1.796875 C 6.976562 -2.378906 7.171875 -3.28125 7.171875 -4.5 Z M 7.171875 -4.5 "/></g></g></g><g fill="#ffffff" fill-opacity="1"><g transform="translate(157.242711, 232.618314)"><g><path d="M 6.84375 0 L 6.84375 -5.6875 C 6.84375 -6.28125 6.785156 -6.738281 6.671875 -7.0625 C 6.554688 -7.394531 6.367188 -7.632812 6.109375 -7.78125 C 5.859375 -7.925781 5.488281 -8 5 -8 C 4.28125 -8 3.710938 -7.75 3.296875 -7.25 C 2.878906 -6.757812 2.671875 -6.078125 2.671875 -5.203125 L 2.671875 0 L 1.171875 0 L 1.171875 -7.0625 C 1.171875 -8.113281 1.15625 -8.753906 1.125 -8.984375 L 2.546875 -8.984375 C 2.546875 -8.953125 2.546875 -8.875 2.546875 -8.75 C 2.554688 -8.632812 2.566406 -8.5 2.578125 -8.34375 C 2.585938 -8.1875 2.597656 -7.890625 2.609375 -7.453125 L 2.625 -7.453125 C 2.96875 -8.066406 3.363281 -8.5 3.8125 -8.75 C 4.269531 -9.007812 4.832031 -9.140625 5.5 -9.140625 C 6.488281 -9.140625 7.207031 -8.894531 7.65625 -8.40625 C 8.113281 -7.914062 8.34375 -7.109375 8.34375 -5.984375 L 8.34375 0 Z M 6.84375 0 "/></g></g></g><g fill="#ffffff" fill-opacity="1"><g transform="translate(166.692955, 232.618314)"><g><path d="M 1.546875 0 L 1.546875 -1.8125 L 3.171875 -1.8125 L 3.171875 0 Z M 1.546875 0 "/></g></g></g><g fill="#ffffff" fill-opacity="1"><g transform="translate(171.413929, 232.618314)"><g/></g></g><g fill="#ffffff" fill-opacity="1"><g transform="translate(176.134903, 232.618314)"><g><path d="M 10.4375 -8.171875 C 10.4375 -7.066406 10.078125 -6.1875 9.359375 -5.53125 C 8.640625 -4.882812 7.660156 -4.5625 6.421875 -4.5625 L 2.984375 -4.5625 L 2.984375 0 L 1.390625 0 L 1.390625 -11.703125 L 6.3125 -11.703125 C 7.625 -11.703125 8.640625 -11.394531 9.359375 -10.78125 C 10.078125 -10.164062 10.4375 -9.296875 10.4375 -8.171875 Z M 8.84375 -8.15625 C 8.84375 -9.664062 7.9375 -10.421875 6.125 -10.421875 L 2.984375 -10.421875 L 2.984375 -5.8125 L 6.1875 -5.8125 C 7.957031 -5.8125 8.84375 -6.59375 8.84375 -8.15625 Z M 8.84375 -8.15625 "/></g></g></g><g fill="#ffffff" fill-opacity="1"><g transform="translate(187.468558, 232.618314)"><g><path d="M 8.734375 -4.5 C 8.734375 -2.925781 8.390625 -1.753906 7.703125 -0.984375 C 7.015625 -0.210938 6.007812 0.171875 4.6875 0.171875 C 3.375 0.171875 2.382812 -0.226562 1.71875 -1.03125 C 1.050781 -1.832031 0.71875 -2.988281 0.71875 -4.5 C 0.71875 -7.59375 2.054688 -9.140625 4.734375 -9.140625 C 6.109375 -9.140625 7.117188 -8.757812 7.765625 -8 C 8.410156 -7.25 8.734375 -6.082031 8.734375 -4.5 Z M 7.171875 -4.5 C 7.171875 -5.738281 6.984375 -6.640625 6.609375 -7.203125 C 6.242188 -7.765625 5.628906 -8.046875 4.765625 -8.046875 C 3.890625 -8.046875 3.253906 -7.757812 2.859375 -7.1875 C 2.472656 -6.613281 2.28125 -5.71875 2.28125 -4.5 C 2.28125 -3.3125 2.472656 -2.421875 2.859375 -1.828125 C 3.242188 -1.234375 3.847656 -0.9375 4.671875 -0.9375 C 5.566406 -0.9375 6.207031 -1.222656 6.59375 -1.796875 C 6.976562 -2.378906 7.171875 -3.28125 7.171875 -4.5 Z M 7.171875 -4.5 "/></g></g></g><g fill="#ffffff" fill-opacity="1"><g transform="translate(196.918802, 232.618314)"><g><path d="M 4.59375 -0.0625 C 4.101562 0.0703125 3.601562 0.140625 3.09375 0.140625 C 1.894531 0.140625 1.296875 -0.539062 1.296875 -1.90625 L 1.296875 -7.890625 L 0.25 -7.890625 L 0.25 -8.984375 L 1.359375 -8.984375 L 1.796875 -10.984375 L 2.796875 -10.984375 L 2.796875 -8.984375 L 4.453125 -8.984375 L 4.453125 -7.890625 L 2.796875 -7.890625 L 2.796875 -2.21875 C 2.796875 -1.789062 2.863281 -1.488281 3 -1.3125 C 3.144531 -1.132812 3.390625 -1.046875 3.734375 -1.046875 C 3.929688 -1.046875 4.21875 -1.085938 4.59375 -1.171875 Z M 4.59375 -0.0625 "/></g></g></g><g fill="#ffffff" fill-opacity="1"><g transform="translate(201.639776, 232.618314)"><g><path d="M 2.296875 -4.171875 C 2.296875 -3.140625 2.503906 -2.34375 2.921875 -1.78125 C 3.347656 -1.226562 3.972656 -0.953125 4.796875 -0.953125 C 5.441406 -0.953125 5.957031 -1.082031 6.34375 -1.34375 C 6.738281 -1.601562 7.003906 -1.929688 7.140625 -2.328125 L 8.453125 -1.953125 C 7.921875 -0.535156 6.703125 0.171875 4.796875 0.171875 C 3.472656 0.171875 2.460938 -0.222656 1.765625 -1.015625 C 1.066406 -1.804688 0.71875 -2.984375 0.71875 -4.546875 C 0.71875 -6.035156 1.066406 -7.171875 1.765625 -7.953125 C 2.460938 -8.742188 3.453125 -9.140625 4.734375 -9.140625 C 7.378906 -9.140625 8.703125 -7.550781 8.703125 -4.375 L 8.703125 -4.171875 Z M 7.15625 -5.328125 C 7.070312 -6.265625 6.828125 -6.953125 6.421875 -7.390625 C 6.023438 -7.828125 5.457031 -8.046875 4.71875 -8.046875 C 3.988281 -8.046875 3.410156 -7.800781 2.984375 -7.3125 C 2.566406 -6.832031 2.34375 -6.171875 2.3125 -5.328125 Z M 7.15625 -5.328125 "/></g></g></g><g fill="#ffffff" fill-opacity="1"><g transform="translate(211.09002, 232.618314)"><g><path d="M 6.84375 0 L 6.84375 -5.6875 C 6.84375 -6.28125 6.785156 -6.738281 6.671875 -7.0625 C 6.554688 -7.394531 6.367188 -7.632812 6.109375 -7.78125 C 5.859375 -7.925781 5.488281 -8 5 -8 C 4.28125 -8 3.710938 -7.75 3.296875 -7.25 C 2.878906 -6.757812 2.671875 -6.078125 2.671875 -5.203125 L 2.671875 0 L 1.171875 0 L 1.171875 -7.0625 C 1.171875 -8.113281 1.15625 -8.753906 1.125 -8.984375 L 2.546875 -8.984375 C 2.546875 -8.953125 2.546875 -8.875 2.546875 -8.75 C 2.554688 -8.632812 2.566406 -8.5 2.578125 -8.34375 C 2.585938 -8.1875 2.597656 -7.890625 2.609375 -7.453125 L 2.625 -7.453125 C 2.96875 -8.066406 3.363281 -8.5 3.8125 -8.75 C 4.269531 -9.007812 4.832031 -9.140625 5.5 -9.140625 C 6.488281 -9.140625 7.207031 -8.894531 7.65625 -8.40625 C 8.113281 -7.914062 8.34375 -7.109375 8.34375 -5.984375 L 8.34375 0 Z M 6.84375 0 "/></g></g></g><g fill="#ffffff" fill-opacity="1"><g transform="translate(220.540265, 232.618314)"><g><path d="M 4.59375 -0.0625 C 4.101562 0.0703125 3.601562 0.140625 3.09375 0.140625 C 1.894531 0.140625 1.296875 -0.539062 1.296875 -1.90625 L 1.296875 -7.890625 L 0.25 -7.890625 L 0.25 -8.984375 L 1.359375 -8.984375 L 1.796875 -10.984375 L 2.796875 -10.984375 L 2.796875 -8.984375 L 4.453125 -8.984375 L 4.453125 -7.890625 L 2.796875 -7.890625 L 2.796875 -2.21875 C 2.796875 -1.789062 2.863281 -1.488281 3 -1.3125 C 3.144531 -1.132812 3.390625 -1.046875 3.734375 -1.046875 C 3.929688 -1.046875 4.21875 -1.085938 4.59375 -1.171875 Z M 4.59375 -0.0625 "/></g></g></g><g fill="#ffffff" fill-opacity="1"><g transform="translate(225.261238, 232.618314)"><g><path d="M 1.140625 -10.890625 L 1.140625 -12.3125 L 2.625 -12.3125 L 2.625 -10.890625 Z M 1.140625 0 L 1.140625 -8.984375 L 2.625 -8.984375 L 2.625 0 Z M 1.140625 0 "/></g></g></g><g fill="#ffffff" fill-opacity="1"><g transform="translate(229.036358, 232.618314)"><g><path d="M 3.4375 0.171875 C 2.53125 0.171875 1.847656 -0.0664062 1.390625 -0.546875 C 0.941406 -1.023438 0.71875 -1.675781 0.71875 -2.5 C 0.71875 -3.4375 1.023438 -4.148438 1.640625 -4.640625 C 2.253906 -5.140625 3.238281 -5.410156 4.59375 -5.453125 L 6.609375 -5.484375 L 6.609375 -5.96875 C 6.609375 -6.695312 6.453125 -7.21875 6.140625 -7.53125 C 5.835938 -7.851562 5.351562 -8.015625 4.6875 -8.015625 C 4.019531 -8.015625 3.53125 -7.898438 3.21875 -7.671875 C 2.914062 -7.441406 2.738281 -7.078125 2.6875 -6.578125 L 1.125 -6.71875 C 1.375 -8.332031 2.570312 -9.140625 4.71875 -9.140625 C 5.851562 -9.140625 6.703125 -8.878906 7.265625 -8.359375 C 7.835938 -7.847656 8.125 -7.101562 8.125 -6.125 L 8.125 -2.265625 C 8.125 -1.816406 8.179688 -1.476562 8.296875 -1.25 C 8.410156 -1.03125 8.632812 -0.921875 8.96875 -0.921875 C 9.113281 -0.921875 9.273438 -0.941406 9.453125 -0.984375 L 9.453125 -0.046875 C 9.078125 0.0351562 8.691406 0.078125 8.296875 0.078125 C 7.742188 0.078125 7.34375 -0.0625 7.09375 -0.34375 C 6.84375 -0.632812 6.703125 -1.09375 6.671875 -1.71875 L 6.609375 -1.71875 C 6.234375 -1.03125 5.789062 -0.539062 5.28125 -0.25 C 4.78125 0.03125 4.164062 0.171875 3.4375 0.171875 Z M 3.78125 -0.953125 C 4.320312 -0.953125 4.804688 -1.078125 5.234375 -1.328125 C 5.660156 -1.578125 5.992188 -1.914062 6.234375 -2.34375 C 6.484375 -2.78125 6.609375 -3.226562 6.609375 -3.6875 L 6.609375 -4.4375 L 4.984375 -4.40625 C 4.273438 -4.394531 3.738281 -4.320312 3.375 -4.1875 C 3.019531 -4.050781 2.742188 -3.84375 2.546875 -3.5625 C 2.359375 -3.289062 2.265625 -2.929688 2.265625 -2.484375 C 2.265625 -1.992188 2.394531 -1.613281 2.65625 -1.34375 C 2.914062 -1.082031 3.289062 -0.953125 3.78125 -0.953125 Z M 3.78125 -0.953125 "/></g></g></g><g fill="#ffffff" fill-opacity="1"><g transform="translate(238.486602, 232.618314)"><g><path d="M 1.140625 0 L 1.140625 -12.3125 L 2.640625 -12.3125 L 2.640625 0 Z M 1.140625 0 "/></g></g></g><g fill="#ffffff" fill-opacity="1"><g transform="translate(242.261722, 232.618314)"><g><path d="M 1.546875 0 L 1.546875 -1.8125 L 3.171875 -1.8125 L 3.171875 0 Z M 1.546875 0 "/></g></g></g><g fill="#ffffff" fill-opacity="1"><g transform="translate(246.982695, 232.618314)"><g/></g></g><g fill="#ffffff" fill-opacity="1"><g transform="translate(251.703669, 232.618314)"><g><path d="M 10.4375 -8.171875 C 10.4375 -7.066406 10.078125 -6.1875 9.359375 -5.53125 C 8.640625 -4.882812 7.660156 -4.5625 6.421875 -4.5625 L 2.984375 -4.5625 L 2.984375 0 L 1.390625 0 L 1.390625 -11.703125 L 6.3125 -11.703125 C 7.625 -11.703125 8.640625 -11.394531 9.359375 -10.78125 C 10.078125 -10.164062 10.4375 -9.296875 10.4375 -8.171875 Z M 8.84375 -8.15625 C 8.84375 -9.664062 7.9375 -10.421875 6.125 -10.421875 L 2.984375 -10.421875 L 2.984375 -5.8125 L 6.1875 -5.8125 C 7.957031 -5.8125 8.84375 -6.59375 8.84375 -8.15625 Z M 8.84375 -8.15625 "/></g></g></g><g fill="#ffffff" fill-opacity="1"><g transform="translate(263.037325, 232.618314)"><g><path d="M 1.171875 0 L 1.171875 -6.890625 C 1.171875 -7.523438 1.15625 -8.222656 1.125 -8.984375 L 2.546875 -8.984375 C 2.585938 -7.960938 2.609375 -7.347656 2.609375 -7.140625 L 2.640625 -7.140625 C 2.878906 -7.910156 3.148438 -8.4375 3.453125 -8.71875 C 3.765625 -9 4.203125 -9.140625 4.765625 -9.140625 C 4.972656 -9.140625 5.175781 -9.113281 5.375 -9.0625 L 5.375 -7.6875 C 5.175781 -7.75 4.910156 -7.78125 4.578125 -7.78125 C 3.960938 -7.78125 3.488281 -7.507812 3.15625 -6.96875 C 2.832031 -6.4375 2.671875 -5.675781 2.671875 -4.6875 L 2.671875 0 Z M 1.171875 0 "/></g></g></g><g fill="#ffffff" fill-opacity="1"><g transform="translate(268.695855, 232.618314)"><g><path d="M 8.734375 -4.5 C 8.734375 -2.925781 8.390625 -1.753906 7.703125 -0.984375 C 7.015625 -0.210938 6.007812 0.171875 4.6875 0.171875 C 3.375 0.171875 2.382812 -0.226562 1.71875 -1.03125 C 1.050781 -1.832031 0.71875 -2.988281 0.71875 -4.5 C 0.71875 -7.59375 2.054688 -9.140625 4.734375 -9.140625 C 6.109375 -9.140625 7.117188 -8.757812 7.765625 -8 C 8.410156 -7.25 8.734375 -6.082031 8.734375 -4.5 Z M 7.171875 -4.5 C 7.171875 -5.738281 6.984375 -6.640625 6.609375 -7.203125 C 6.242188 -7.765625 5.628906 -8.046875 4.765625 -8.046875 C 3.890625 -8.046875 3.253906 -7.757812 2.859375 -7.1875 C 2.472656 -6.613281 2.28125 -5.71875 2.28125 -4.5 C 2.28125 -3.3125 2.472656 -2.421875 2.859375 -1.828125 C 3.242188 -1.234375 3.847656 -0.9375 4.671875 -0.9375 C 5.566406 -0.9375 6.207031 -1.222656 6.59375 -1.796875 C 6.976562 -2.378906 7.171875 -3.28125 7.171875 -4.5 Z M 7.171875 -4.5 "/></g></g></g><g fill="#ffffff" fill-opacity="1"><g transform="translate(278.1461, 232.618314)"><g><path d="M 3 -7.890625 L 3 0 L 1.5 0 L 1.5 -7.890625 L 0.234375 -7.890625 L 0.234375 -8.984375 L 1.5 -8.984375 L 1.5 -10 C 1.5 -10.8125 1.675781 -11.394531 2.03125 -11.75 C 2.394531 -12.113281 2.945312 -12.296875 3.6875 -12.296875 C 4.101562 -12.296875 4.457031 -12.265625 4.75 -12.203125 L 4.75 -11.0625 C 4.5 -11.101562 4.273438 -11.125 4.078125 -11.125 C 3.703125 -11.125 3.425781 -11.023438 3.25 -10.828125 C 3.082031 -10.640625 3 -10.289062 3 -9.78125 L 3 -8.984375 L 4.75 -8.984375 L 4.75 -7.890625 Z M 3 -7.890625 "/></g></g></g><g fill="#ffffff" fill-opacity="1"><g transform="translate(282.867073, 232.618314)"><g><path d="M 1.140625 -10.890625 L 1.140625 -12.3125 L 2.625 -12.3125 L 2.625 -10.890625 Z M 1.140625 0 L 1.140625 -8.984375 L 2.625 -8.984375 L 2.625 0 Z M 1.140625 0 "/></g></g></g><g fill="#ffffff" fill-opacity="1"><g transform="translate(286.642193, 232.618314)"><g><path d="M 4.59375 -0.0625 C 4.101562 0.0703125 3.601562 0.140625 3.09375 0.140625 C 1.894531 0.140625 1.296875 -0.539062 1.296875 -1.90625 L 1.296875 -7.890625 L 0.25 -7.890625 L 0.25 -8.984375 L 1.359375 -8.984375 L 1.796875 -10.984375 L 2.796875 -10.984375 L 2.796875 -8.984375 L 4.453125 -8.984375 L 4.453125 -7.890625 L 2.796875 -7.890625 L 2.796875 -2.21875 C 2.796875 -1.789062 2.863281 -1.488281 3 -1.3125 C 3.144531 -1.132812 3.390625 -1.046875 3.734375 -1.046875 C 3.929688 -1.046875 4.21875 -1.085938 4.59375 -1.171875 Z M 4.59375 -0.0625 "/></g></g></g><g fill="#ffffff" fill-opacity="1"><g transform="translate(291.363155, 232.618314)"><g><path d="M 1.546875 0 L 1.546875 -1.8125 L 3.171875 -1.8125 L 3.171875 0 Z M 1.546875 0 "/></g></g></g></svg>